<?xml version="1.0" encoding="utf-8"?>
<!-- Generator: Adobe Illustrator 24.2.1, SVG Export Plug-In . SVG Version: 6.00 Build 0)  -->
<svg version="1.1" id="Layer_1" xmlns="http://www.w3.org/2000/svg" xmlns:xlink="http://www.w3.org/1999/xlink" x="0px" y="0px"
	 viewBox="0 0 825 386.3" style="enable-background:new 0 0 825 386.3;" xml:space="preserve">
<style type="text/css">
	.st0{fill:#764ABC;}
	.st1{fill:#CB9831;}
	.st2{font-family:'AmericanTypewriter-Light';}
	.st3{font-size:210.7817px;}
	.st4{fill:#90BC4A;}
	.st5{font-family:'Lato-Light';}
	.st6{font-size:87.6678px;}
	.st7{font-family:'Lato-Heavy';}
	.st8{font-size:100px;}
</style>
<g>
	<path class="st0" d="M251.6,198.4c7.7-0.8,13.5-7.4,13.2-15.3c-0.3-7.9-6.9-14.3-14.8-14.3h-0.5c-8.2,0.3-14.5,7.1-14.3,15.3
		c0.3,4,1.8,7.4,4.2,9.8c-9,17.7-22.7,30.6-43.3,41.5c-14,7.4-28.5,10-43,8.2c-11.9-1.6-21.1-6.9-26.9-15.6
		c-8.5-12.9-9.2-26.9-2.1-40.9c5-10,12.9-17.4,18-21.1c-1.1-3.4-2.6-9.2-3.4-13.5c-38.3,27.7-34.3,65.2-22.7,82.9
		c8.7,13.2,26.4,21.4,46,21.4c5.3,0,10.6-0.5,15.8-1.8C211.4,248.3,237.1,228.2,251.6,198.4z M298.1,165.6
		c-20.1-23.5-49.7-36.4-83.5-36.4h-4.2c-2.4-4.8-7.4-7.9-12.9-7.9H197c-8.2,0.3-14.5,7.1-14.3,15.3c0.3,7.9,6.9,14.3,14.8,14.3h0.5
		c5.8-0.3,10.8-4,12.9-9h4.8c20.1,0,39.1,5.8,56.3,17.2c13.2,8.7,22.7,20.1,28,33.8c4.5,11.1,4.2,21.9-0.5,31.2
		c-7.4,14-19.8,21.7-36.2,21.7c-10.6,0-20.6-3.2-25.9-5.5c-2.9,2.6-8.2,6.9-11.9,9.5c11.4,5.3,23,8.2,34.1,8.2
		c25.4,0,44.1-14,51.2-28C318.4,214.5,317.9,188.1,298.1,165.6z M163.9,202.9c0.3,7.9,6.9,14.3,14.8,14.3h0.5
		c8.2-0.3,14.5-7.1,14.3-15.3c-0.3-7.9-6.9-14.3-14.8-14.3h-0.5c-0.5,0-1.3,0-1.8,0.3c-10.8-18-15.3-37.5-13.7-58.6
		c1.1-15.8,6.3-29.6,15.6-40.9c7.7-9.8,22.4-14.5,32.5-14.8c28-0.5,39.9,34.3,40.7,48.3c3.4,0.8,9.2,2.6,13.2,4
		c-3.2-42.8-29.6-65-54.9-65c-23.8,0-45.7,17.2-54.4,42.5c-12.1,33.8-4.2,66.3,10.6,91.9C164.4,197.1,163.6,200,163.9,202.9z"/>
</g>
<text transform="matrix(1 0 0 1 12.2375 230.0676)" class="st1 st2 st3">{</text>
<text transform="matrix(1 0 0 1 303.2639 230.0676)" class="st1 st2 st3">}</text>
<text transform="matrix(1 0 0 1 372.1816 310.1494)" class="st4 st5 st6">optimistic</text>
<text transform="matrix(1 0 0 1 68.0549 358.0333)" class="st0 st7 st8">Redux</text>
</svg>
