<?xml version="1.0" encoding="utf-8"?>
<!-- Generator: Adobe Illustrator 23.0.6, SVG Export Plug-In . SVG Version: 6.00 Build 0)  -->
<svg version="1.1" id="Layer_1" xmlns="http://www.w3.org/2000/svg" xmlns:xlink="http://www.w3.org/1999/xlink" x="0px" y="0px"
	 viewBox="0 0 22.8 23.7" style="enable-background:new 0 0 22.8 23.7;" xml:space="preserve">
<style type="text/css">
	.st0{fill:#666666;}
</style>
<g id="Group_6866" transform="translate(-0.025 -0.1)">
	<g id="Group_6479" transform="translate(0.025 0.1)">
		<g id="Group_6478" transform="translate(0 0)">
			<path id="Path_2919" class="st0" d="M21.7,12.2c-0.1-0.2-0.1-0.4,0-0.6l0.9-1.8c0.5-1,0.1-2.2-0.9-2.7l-1.8-0.9
				c-0.2-0.1-0.3-0.3-0.4-0.5l-0.3-2c-0.2-1.1-1.2-1.9-2.3-1.7l-2,0.3c-0.2,0-0.4,0-0.6-0.2l-1.4-1.4c-0.8-0.8-2.1-0.8-2.9,0L8.5,2
				C8.3,2.1,8.1,2.2,7.9,2.2l-2-0.3C4.8,1.7,3.8,2.5,3.6,3.6l-0.3,2c0,0.2-0.2,0.4-0.4,0.5L1.1,7c-1,0.5-1.4,1.7-0.9,2.7l0.9,1.8
				c0.1,0.2,0.1,0.4,0,0.6L0.2,14c-0.5,1-0.1,2.2,0.9,2.7l1.8,0.9c0.2,0.1,0.3,0.3,0.4,0.5l0.3,2c0.2,1,1,1.7,2,1.7
				c0.1,0,0.2,0,0.3,0l2-0.3c0.2,0,0.4,0,0.6,0.2l1.4,1.4c0.8,0.8,2.1,0.8,2.9,0l1.4-1.4c0.2-0.2,0.4-0.2,0.6-0.2l2,0.3
				c1.1,0.2,2.1-0.6,2.3-1.7l0.3-2c0-0.2,0.2-0.4,0.4-0.5l1.8-0.9c1-0.5,1.4-1.7,0.9-2.7L21.7,12.2z M21,15.5l-1.8,0.9
				c-0.6,0.3-1,0.8-1.1,1.5l-0.3,2c-0.1,0.4-0.4,0.6-0.8,0.6l-2-0.3c-0.6-0.1-1.3,0.1-1.7,0.6l-1.4,1.4c-0.3,0.3-0.7,0.3-1,0
				l-1.4-1.4c-0.4-0.4-0.9-0.6-1.4-0.6c-0.1,0-0.2,0-0.3,0l-2,0.3c-0.4,0.1-0.7-0.2-0.8-0.6l-0.3-2c-0.1-0.6-0.5-1.2-1.1-1.5
				l-1.8-0.9c-0.3-0.2-0.5-0.6-0.3-0.9l0.9-1.8c0.3-0.6,0.3-1.2,0-1.8L1.4,9.1c-0.2-0.3,0-0.7,0.3-0.9l1.8-0.9
				c0.6-0.3,1-0.8,1.1-1.5l0.3-2C5,3.4,5.3,3.2,5.7,3.2l2,0.3C8.4,3.6,9,3.4,9.4,3l1.4-1.4c0.3-0.3,0.7-0.3,1,0L13.3,3
				c0.5,0.4,1.1,0.7,1.7,0.6l2-0.3c0.4-0.1,0.7,0.2,0.8,0.6l0.3,2c0.1,0.6,0.5,1.2,1.1,1.5L21,8.2c0.3,0.2,0.5,0.6,0.3,0.9L20.4,11
				c-0.3,0.6-0.3,1.2,0,1.8l0.9,1.8C21.5,14.9,21.3,15.3,21,15.5z"/>
		</g>
	</g>
	<g id="Group_6481" transform="translate(6.206 6.755)">
		<g id="Group_6480">
			<path id="Path_2920" class="st0" d="M10.2,0.2c-0.3-0.3-0.7-0.3-1,0c0,0,0,0,0,0l-9,9c-0.3,0.3-0.3,0.7,0,1
				c0.1,0.1,0.3,0.2,0.5,0.2c0.2,0,0.4-0.1,0.5-0.2l9-9C10.5,0.9,10.5,0.5,10.2,0.2C10.2,0.2,10.2,0.2,10.2,0.2z"/>
		</g>
	</g>
	<g id="Group_6483" transform="translate(6.162 5.798)">
		<g id="Group_6482">
			<path id="Path_2921" class="st0" d="M2.5,0C1.1,0,0,1.1,0,2.5C0,3.9,1.1,5,2.5,5C3.9,5,5,3.9,5,2.5v0C5,1.1,3.9,0,2.5,0z
				 M2.5,3.7c-0.6,0-1.1-0.5-1.1-1.1s0.5-1.1,1.1-1.1s1.1,0.5,1.1,1.1l0,0C3.6,3.1,3.1,3.7,2.5,3.7C2.5,3.7,2.5,3.7,2.5,3.7z"/>
		</g>
	</g>
	<g id="Group_6485" transform="translate(11.634 13.095)">
		<g id="Group_6484">
			<path id="Path_2922" class="st0" d="M2.5,0C1.1,0,0,1.1,0,2.5C0,3.9,1.1,5,2.5,5C3.9,5,5,3.9,5,2.5C5,1.1,3.9,0,2.5,0z M2.5,3.7
				c-0.6,0-1.1-0.5-1.1-1.1c0-0.6,0.5-1.1,1.1-1.1c0.6,0,1.1,0.5,1.1,1.1C3.6,3.1,3.1,3.7,2.5,3.7C2.5,3.7,2.5,3.7,2.5,3.7z"/>
		</g>
	</g>
</g>
</svg>
